<svg width="236" height="21" fill="none" xmlns="http://www.w3.org/2000/svg"><path d="M.94 16V1.32h.98l8.12 12.66V1.32h1.16V16h-.96L2.1 3.34V16H.94zm19.196 0V4.14c0-.547.08-1 .24-1.36.16-.36.373-.647.64-.86.266-.213.56-.367.88-.46.333-.093.666-.14 1-.14.613.013 1.26.027 1.94.04.68 0 1.366.013 2.06.04.706.013 1.393.04 2.06.08v.9h-5.84c-.547 0-.987.16-1.32.48-.334.307-.5.78-.5 1.42v4.2l6.82.1v.86l-6.82.1V16h-1.16zm20.67 0V2.36h-4.7V1.32h10.56v1.04h-4.7V16h-1.16zm24.879 0l1.66-14.68h1.26l4.06 13.14 4-13.14h1.28l1.7 14.68h-1.12l-1.56-13.52.22.04L73.205 16h-1.08l-4.06-13.46.24-.04-1.5 13.5h-1.12zm24.67.12c-.773 0-1.42-.227-1.94-.68-.506-.467-.76-1.127-.76-1.98v-.72c0-.84.274-1.52.82-2.04.56-.52 1.38-.78 2.46-.78h3.9V8.44c0-.48-.086-.893-.26-1.24-.16-.347-.446-.613-.86-.8-.413-.187-1.006-.28-1.78-.28h-3.34v-.7c.44-.053.96-.107 1.56-.16a30.46 30.46 0 012.1-.1c.867-.013 1.574.1 2.12.34.56.227.967.58 1.22 1.06.267.48.4 1.087.4 1.82V16h-.88l-.24-1.24c-.04.027-.206.113-.5.26a15.632 15.632 0 01-2.54.92c-.506.12-1 .18-1.48.18zm.4-.92a3.9 3.9 0 00.92-.08c.36-.08.72-.167 1.08-.26.36-.107.694-.207 1-.3.32-.107.574-.2.76-.28.2-.08.307-.12.32-.12v-3.62l-3.72.14c-.826.027-1.42.233-1.78.62-.346.387-.52.873-.52 1.46v.5c0 .48.1.867.3 1.16.2.28.447.48.74.6.307.12.607.18.9.18zm14.44.8V5.34h.86l.3 1.92a7.485 7.485 0 011.68-1.46c.626-.387 1.346-.58 2.16-.58.2 0 .386.013.56.04.173.013.333.04.48.08v1.18a56.47 56.47 0 00-.54-.08 4.255 4.255 0 00-.6-.04c-.52 0-.987.067-1.4.2-.4.133-.787.333-1.16.6a9.77 9.77 0 00-1.18.96V16h-1.16zm14.183 0V.74h1.16v9.02h1.6l3.54-4.42h1.26l-3.96 4.96 4.18 5.7h-1.28l-3.8-5.2h-1.54V16h-1.16zm19.784.12c-1.093 0-1.96-.167-2.6-.5-.627-.347-1.073-.92-1.34-1.72-.267-.8-.4-1.887-.4-3.26 0-1.4.14-2.493.42-3.28.28-.787.74-1.34 1.38-1.66.653-.32 1.52-.48 2.6-.48.907 0 1.647.107 2.22.32.587.2 1.02.553 1.3 1.06.293.507.44 1.207.44 2.1 0 .6-.12 1.087-.36 1.46-.227.36-.56.62-1 .78-.44.16-.96.24-1.56.24h-4.28c0 .973.093 1.753.28 2.34.187.587.52 1.013 1 1.28.493.267 1.213.4 2.16.4h3.52v.7c-.64.067-1.247.12-1.82.16-.56.04-1.213.06-1.96.06zm-3.2-5.76h4.22c.653 0 1.14-.113 1.46-.34.32-.24.48-.68.48-1.32 0-.667-.1-1.187-.3-1.56-.187-.373-.493-.633-.92-.78-.413-.16-.973-.24-1.68-.24-.84 0-1.5.12-1.98.36-.467.24-.8.667-1 1.28-.187.613-.28 1.48-.28 2.6zm19.46 5.64c-.64 0-1.18-.113-1.62-.34-.427-.227-.747-.587-.96-1.08-.213-.493-.32-1.133-.32-1.92l.06-6.34h-1.7v-.76l1.7-.22.22-2.98h.88v2.98h3.24v.98h-3.24v6.34c0 .507.053.92.16 1.24.12.307.267.54.44.7.187.16.38.273.58.34.213.053.413.087.6.1l1.3.12V16h-1.34zm9.866 4.74V5.34h.9l.26 1.12c.227-.16.54-.34.94-.54.414-.2.854-.367 1.32-.5.48-.133.94-.2 1.38-.2.707 0 1.3.153 1.78.46.494.307.894.72 1.2 1.24.307.52.527 1.1.66 1.74.134.64.2 1.3.2 1.98 0 1.213-.146 2.233-.44 3.06-.28.813-.7 1.42-1.26 1.82-.56.4-1.273.6-2.14.6-.613 0-1.24-.1-1.88-.3a8.859 8.859 0 01-1.76-.8v5.72h-1.16zm4.54-5.6c.574 0 1.074-.14 1.5-.42.44-.293.787-.767 1.04-1.42.267-.653.4-1.54.4-2.66 0-1.067-.14-1.927-.42-2.58-.28-.653-.646-1.127-1.1-1.42a2.435 2.435 0 00-1.42-.46c-.68 0-1.3.113-1.86.34a16.79 16.79 0 00-1.52.66v6.98c.52.293 1.067.533 1.64.72.587.173 1.167.26 1.74.26zm15.604.88c-.56 0-1.04-.107-1.44-.32-.387-.213-.68-.567-.88-1.06-.2-.493-.3-1.173-.3-2.04V.74h1.16v11.74c0 .693.06 1.22.18 1.58.133.36.32.607.56.74.253.133.54.22.86.26l1.16.14v.82h-1.3zm11.162.1c-.774 0-1.42-.227-1.94-.68-.507-.467-.76-1.127-.76-1.98v-.72c0-.84.273-1.52.82-2.04.56-.52 1.38-.78 2.46-.78h3.9V8.44c0-.48-.087-.893-.26-1.24-.16-.347-.447-.613-.86-.8-.414-.187-1.007-.28-1.78-.28h-3.34v-.7c.44-.053.96-.107 1.56-.16a30.442 30.442 0 012.1-.1c.866-.013 1.573.1 2.12.34.56.227.966.58 1.22 1.06.266.48.4 1.087.4 1.82V16h-.88l-.24-1.24c-.04.027-.207.113-.5.26a15.693 15.693 0 01-2.54.92c-.507.12-1 .18-1.48.18zm.4-.92c.266.013.573-.013.92-.08.36-.08.72-.167 1.08-.26l1-.3c.32-.107.573-.2.76-.28.2-.08.306-.12.32-.12v-3.62l-3.72.14c-.827.027-1.42.233-1.78.62-.347.387-.52.873-.52 1.46v.5c0 .48.1.867.3 1.16.2.28.446.48.74.6.306.12.606.18.9.18zm18.239.92c-.6 0-1.153-.08-1.66-.24a3.261 3.261 0 01-1.34-.82c-.373-.4-.667-.953-.88-1.66-.213-.707-.32-1.613-.32-2.72 0-1.107.1-2.013.3-2.72.2-.707.48-1.26.84-1.66.373-.4.82-.673 1.34-.82.52-.16 1.1-.24 1.74-.24.493 0 1.053.02 1.68.06.64.027 1.233.08 1.78.16v.7h-3.2c-.707 0-1.307.12-1.8.36-.48.227-.853.673-1.12 1.34-.267.653-.4 1.613-.4 2.88 0 1.2.14 2.127.42 2.78.28.64.667 1.08 1.16 1.32.493.227 1.073.34 1.74.34h3.36v.7c-.307.04-.653.08-1.04.12-.387.04-.8.067-1.24.08-.44.027-.893.04-1.36.04zm15.945 0c-1.094 0-1.96-.167-2.6-.5-.627-.347-1.074-.92-1.34-1.72-.267-.8-.4-1.887-.4-3.26 0-1.4.14-2.493.42-3.28.28-.787.74-1.34 1.38-1.66.653-.32 1.52-.48 2.6-.48.906 0 1.646.107 2.22.32.586.2 1.02.553 1.3 1.06.293.507.44 1.207.44 2.1 0 .6-.12 1.087-.36 1.46-.227.36-.56.62-1 .78-.44.16-.96.24-1.56.24h-4.28c0 .973.093 1.753.28 2.34.186.587.52 1.013 1 1.28.493.267 1.213.4 2.16.4h3.52v.7c-.64.067-1.247.12-1.82.16-.56.04-1.214.06-1.96.06zm-3.2-5.76h4.22c.653 0 1.14-.113 1.46-.34.32-.24.48-.68.48-1.32 0-.667-.1-1.187-.3-1.56-.187-.373-.494-.633-.92-.78-.414-.16-.974-.24-1.68-.24-.84 0-1.5.12-1.98.36-.467.24-.8.667-1 1.28-.187.613-.28 1.48-.28 2.6z" fill="#D2D7D9"/></svg>