<svg width="24" height="24" fill="none" xmlns="http://www.w3.org/2000/svg"><path d="M9.438 13.5a.438.438 0 11-.876 0 .438.438 0 01.876 0zm6 0a.438.438 0 11-.876 0 .438.438 0 01.876 0z" stroke="#D2D7D9"/><path d="M6.975 7.5A16.397 16.397 0 0112 6.75c1.704-.013 3.4.24 5.025.75m0 9c-1.626.51-3.321.763-5.025.75-1.704.013-3.4-.24-5.025-.75" stroke="#D2D7D9" stroke-linecap="round" stroke-linejoin="round"/><path d="M14.531 17.072l1.135 2.25a.732.732 0 00.843.394c2.297-.563 4.285-1.538 5.729-2.794a.76.76 0 00.224-.788L19.284 5.522a.722.722 0 00-.44-.478 16.537 16.537 0 00-2.775-.863.76.76 0 00-.881.497l-.741 2.24M9.469 17.072l-1.135 2.25a.732.732 0 01-.843.394c-2.297-.563-4.285-1.538-5.728-2.794a.76.76 0 01-.225-.788L4.716 5.522a.722.722 0 01.44-.478 16.537 16.537 0 012.775-.863.76.76 0 01.881.497l.741 2.24" stroke="#D2D7D9" stroke-linecap="round" stroke-linejoin="round"/></svg>