<svg width="19" height="18" fill="none" xmlns="http://www.w3.org/2000/svg"><path d="M7.116 12.98c-.801 2.383-3.98 2.383-3.98 2.383s0-3.178 2.384-3.98m8.754-3.973L9.5 12.186 6.315 9l4.774-4.774c1.807-1.807 3.614-1.786 4.388-1.674a.548.548 0 01.47.471c.113.774.134 2.58-1.673 4.388z" stroke="#D2D7D9" stroke-linecap="round" stroke-linejoin="round"/><path d="M13.48 8.206v4.542a.563.563 0 01-.17.394l-2.27 2.278a.562.562 0 01-.95-.289l-.59-2.946m.795-7.165H5.752a.563.563 0 00-.393.169L3.08 7.46a.562.562 0 00.288.95L6.315 9" stroke="#D2D7D9" stroke-linecap="round" stroke-linejoin="round"/></svg>